<svg width="20" height="17" viewBox="0 0 20 17" fill="none" xmlns="http://www.w3.org/2000/svg">
<path fill-rule="evenodd" clip-rule="evenodd" d="M1.5 0C0.671573 0 0 0.671573 0 1.5C0 2.32843 0.671573 3 1.5 3H18.5C19.3284 3 20 2.32843 20 1.5C20 0.671573 19.3284 0 18.5 0H1.5ZM1.5 7C0.671573 7 0 7.67157 0 8.5C0 9.32843 0.671573 10 1.5 10H4.5C5.32843 10 6 9.32843 6 8.5C6 7.67157 5.32843 7 4.5 7H1.5ZM8 8.5C8 7.67157 8.67157 7 9.5 7H18.5C19.3284 7 20 7.67157 20 8.5C20 9.32843 19.3284 10 18.5 10H9.5C8.67157 10 8 9.32843 8 8.5ZM1.5 14C0.671573 14 0 14.6716 0 15.5C0 16.3284 0.671573 17 1.5 17H18.5C19.3284 17 20 16.3284 20 15.5C20 14.6716 19.3284 14 18.5 14H1.5Z" fill="#2D5BFF"/>
</svg>
