<svg width="15" height="14" viewBox="0 0 15 14" fill="none" xmlns="http://www.w3.org/2000/svg">
<path d="M9.375 9.71875C9.375 9.98242 9.14062 10.1875 8.90625 10.1875H6.09375C5.83008 10.1875 5.625 9.98242 5.625 9.71875V8.3125H0V12.5312C0 13.293 0.644531 13.9375 1.40625 13.9375H13.5938C14.3262 13.9375 15 13.293 15 12.5312V8.3125H9.375V9.71875ZM13.5938 3.625H11.25V2.21875C11.25 1.48633 10.5762 0.8125 9.84375 0.8125H5.15625C4.39453 0.8125 3.75 1.48633 3.75 2.21875V3.625H1.40625C0.644531 3.625 0 4.29883 0 5.03125V7.375H15V5.03125C15 4.29883 14.3262 3.625 13.5938 3.625ZM9.375 3.625H5.625V2.6875H9.375V3.625Z" fill="#7D8098"/>
</svg>
