<svg width="20" height="20" viewBox="0 0 20 20" fill="none" xmlns="http://www.w3.org/2000/svg">
<path fill-rule="evenodd" clip-rule="evenodd" d="M13.7499 -0.000244141H6.24994C2.79869 -0.000244141 -6.10352e-05 2.79851 -6.10352e-05 6.24976V13.7498C-6.10352e-05 17.201 2.79869 19.9998 6.24994 19.9998H13.7499C17.2012 19.9998 19.9999 17.201 19.9999 13.7498V6.24976C19.9999 2.79851 17.2012 -0.000244141 13.7499 -0.000244141ZM9.99994 4.99982C7.23869 4.99982 4.99994 7.23857 4.99994 9.99982C4.99994 12.7611 7.23869 14.9998 9.99994 14.9998C12.7612 14.9998 14.9999 12.7611 14.9999 9.99982C14.9999 7.23857 12.7612 4.99982 9.99994 4.99982ZM9.99994 13.1248C8.27744 13.1248 6.87494 11.7223 6.87494 9.99982C6.87494 8.27607 8.27744 6.87482 9.99994 6.87482C11.7224 6.87482 13.1249 8.27607 13.1249 9.99982C13.1249 11.7223 11.7224 13.1248 9.99994 13.1248ZM16.0415 4.62505C16.0415 4.99301 15.7432 5.29129 15.3753 5.29129C15.0073 5.29129 14.709 4.99301 14.709 4.62505C14.709 4.25709 15.0073 3.9588 15.3753 3.9588C15.7432 3.9588 16.0415 4.25709 16.0415 4.62505Z" fill="white"/>
</svg>
